<?xml version="1.0" standalone="no"?>
<!DOCTYPE svg PUBLIC "-//W3C//DTD SVG 1.1//EN" "http://www.w3.org/Graphics/SVG/1.1/DTD/svg11.dtd" >
<svg xmlns="http://www.w3.org/2000/svg">
<metadata></metadata>
<defs>
<font id="episoderegular" horiz-adv-x="534" >
<font-face units-per-em="2048" ascent="1638" descent="-410" />
<missing-glyph horiz-adv-x="282" />
<glyph horiz-adv-x="0" />
<glyph unicode="&#xd;" horiz-adv-x="282" />
<glyph unicode=" "  horiz-adv-x="282" />
<glyph unicode="&#x09;" horiz-adv-x="282" />
<glyph unicode="&#xa0;" horiz-adv-x="282" />
<glyph unicode="!" horiz-adv-x="337" d="M68 -37l4 125l104 49l17 -117zM94 211l62 1087l129 70l-113 -1120z" />
<glyph unicode="&#x22;" horiz-adv-x="372" d="M90 1020v96l2 117l109 35l-21 -123l-16 -105zM242 1028l4 98l2 119l106 35l-41 -231z" />
<glyph unicode="#" horiz-adv-x="614" d="M51 440l119 56l-6 211l-113 -50l2 68l109 51l-4 187l-4 145l90 47v-342l100 43l8 141l8 148l91 43q0 -25 -2.5 -67t-8.5 -97l-10 -135l76 29l55 20l-29 -98l-108 -37l-6 -107l-6 -96l141 55l-29 -100l-116 -41l-2 -223v-35v-25q-4 -16 -5 -22l-71 -41l4 317l-86 -32 l2 -211q0 -66 6 -109l-72 -33l-14 324l-117 -47zM244 739l4 -209l88 39l6 205z" />
<glyph unicode="$" d="M25 68q115 49 200 112l2 535q-35 37 -75 82q-33 37 -58 71q-47 70 -47 148q0 176 205 244l4 61l4 63l92 54l-6 -80l-6 -80l76 6l61 -92h-74l-69 -6q0 -37 -5 -129t-5 -129l-9 -170q80 -78 124 -146.5t44 -148.5q0 -88 -38.5 -174t-133.5 -172l2 -111l6 -61l-88 -56l-4 88 v78q-27 -16 -63 -37q-27 -14 -72 -34l-39 41zM137 1022q0 -35 25 -82q10 -18 29.5 -44t37.5 -46l7 168l8 137q-106 -49 -107 -133zM309 258q45 51 63.5 105.5t18.5 97.5q0 45 -22 84q-19 41 -58 82z" />
<glyph unicode="%" horiz-adv-x="684" d="M43 934l6 96q6 61 48 142t114 81q45 0 66.5 -58t21.5 -130l-6 -80q0 -86 -53 -162q-43 -66 -103 -65q-41 0 -67.5 50t-26.5 126zM121 918q0 -72 29 -72q25 0 38 51l19 90l10 64l2 61v29q0 14 -4 26.5t-14 12.5q-18 0 -42 -68t-32 -115zM193 -49l204 1382l111 72 l-232 -1399zM373 254v35l8 71q10 57 58.5 136t111.5 79q45 0 67 -55q20 -61 21 -135l-6 -76q-8 -92 -62 -166q-49 -74 -110 -73q-37 0 -62.5 51t-25.5 133zM453 219q0 -63 22 -65q20 0 41 51q6 16 18.5 59t16.5 62l6 51l2 49q0 31 -5 49.5t-15 18.5q-14 0 -37 -44t-39 -118 q-6 -33 -8 -51.5t-2 -61.5z" />
<glyph unicode="&#x26;" horiz-adv-x="634" d="M12 109q0 119 71 291.5t222 430.5l-18 113l-8 109v30l10 58q6 35 58 91t91 62l51 6q61 0 75 -47t14 -67q0 -90 -70 -205l-107 -178l29 -205q12 -106 31 -190l67 75l33 -118l-65 -68l28 -119q10 -33 21.5 -67.5t25.5 -73.5l-77 -72l-41 129l-31 127q-49 -57 -148.5 -143 t-132.5 -92l-45 -4q-29 0 -53 18q-16 18 -27 51zM104 137q1 -26 15 -26q68 12 170 104l104 111l-65 372q-43 -76 -80 -153.5t-71 -163.5t-53.5 -149.5t-19.5 -94.5zM367 1053l6 -64l8 -47q14 23 36.5 61.5t42 77.5t30 66t10.5 45q-1 18 -15 18q-39 0 -72.5 -28.5 t-41.5 -65.5z" />
<glyph unicode="'" horiz-adv-x="210" d="M92 1016v98l2 119l109 35l-23 -125l-14 -107z" />
<glyph unicode="(" horiz-adv-x="471" d="M119 672q0 225 49 409q25 96 67.5 208.5t108.5 262.5l80 -20q-102 -219 -152.5 -445.5t-50.5 -418.5q0 -252 55.5 -458t153.5 -398l-74 -113q-63 131 -107 245.5t-75 225.5q-55 209 -55 502z" />
<glyph unicode=")" horiz-adv-x="450" d="M8 -221q104 211 160 399q23 82 42 178.5t28.5 177t15.5 170t6 154.5q0 172 -26.5 322.5t-96.5 335.5l99 77q29 -96 49 -184t41 -192q31 -176 30 -347l-6 -153l-24 -232q-8 -72 -27.5 -158.5t-50.5 -183.5q-61 -190 -185 -419z" />
<glyph unicode="*" horiz-adv-x="409" d="M68 1122l34 17l66 22l-25 47l-24 62l55 45q0 -33 8 -51.5t14.5 -31.5t16.5 -30l57 111l95 8q-53 -63 -93 -143l72 6l57 2h21l-19 -70l-124 -4l51 -45l41 -27l-43 -26l-52 35l-43 32q-23 -63 -22 -112l-55 -8q-1 77 22 145q-35 0 -57.5 -9.5t-50.5 -31.5z" />
<glyph unicode="+" horiz-adv-x="342" d="M20 618l13 72l80 23l6 102l94 53l-8 -67l-8 -64l118 31l-30 -96l-97 -21l-10 -108l-65 -35l-2 129z" />
<glyph unicode="," horiz-adv-x="239" d="M27 -131q8 18 17 46t14 50.5t9.5 62.5t4.5 95l116 33q-12 -102 -38 -164q-10 -25 -23.5 -53.5t-26.5 -49.5z" />
<glyph unicode="-" horiz-adv-x="493" d="M66 496l38 90l324 55l-43 -104z" />
<glyph unicode="." horiz-adv-x="235" d="M43 -27l16 133l127 29l-36 -133z" />
<glyph unicode="/" horiz-adv-x="366" d="M18 -129l224 1544l114 68l-252 -1542z" />
<glyph unicode="0" horiz-adv-x="612" d="M61 606q0 137 22.5 253t74.5 228q98 218 211 218q111 0 161 -210t50 -462q0 -244 -91.5 -455t-234.5 -211q-92 0 -142.5 205t-50.5 434zM176 647q0 -281 16.5 -439.5t79.5 -158.5q74 0 129 182q29 96 43.5 182.5t14.5 182.5v98q0 238 -18.5 383.5t-80.5 145.5 q-66 0 -127 -183q-29 -94 -43 -188t-14 -205z" />
<glyph unicode="1" horiz-adv-x="378" d="M61 999l103 289l96 45q0 -80 -2 -255t-2 -271q0 -90 -2 -285.5t-2 -302.5q0 -152 6 -192l-117 -60l6 447l15 356l8 264z" />
<glyph unicode="2" horiz-adv-x="503" d="M0 35q0 66 25.5 168t62.5 184l156 293q117 209 129 258l14 66l2 30q0 72 -50 115t-151 43q-39 0 -59 -2t-72 -14l31 106l66 10l67 2l88 -6q74 -10 131.5 -72.5t57.5 -140.5v-24q0 -106 -90 -273l-187 -346q-47 -88 -76.5 -162.5t-44.5 -144.5q117 59 185 80l112 35 l9 -123q-72 -12 -172.5 -41t-227.5 -103q-6 23 -6 62z" />
<glyph unicode="3" horiz-adv-x="528" d="M29 1157l57 123q209 0 299 18t133 41l-242 -258q51 -6 86 -26q35 -14 78 -78t43 -184q0 -141 -67.5 -314.5t-153.5 -318t-147 -219.5l-76 96q66 84 127 186.5t117 218.5q106 231 106 385q0 76 -29 117q-25 43 -63.5 57.5t-87.5 14.5l-55 -2l-54 -2l131 137l70 78 l-108 -23q-43 -10 -68 -16t-96 -31z" />
<glyph unicode="4" horiz-adv-x="540" d="M-25 344q43 106 80 203.5t80 218.5l123 348l66 195l108 47q-10 -82 -21.5 -179.5t-11.5 -205.5l-14 -344l115 45l-23 -125l-98 -37q0 -90 1 -182t3 -187l12 -133l-121 -55l15 536l-152 -69q-66 -27 -162 -76zM133 508q51 37 96 57l62 27q0 41 2 67q10 131 10 160l31 287 l-94 -293q-50 -162 -107 -305z" />
<glyph unicode="5" horiz-adv-x="497" d="M18 23l150 247q80 127 145 277q59 137 60 244q0 92 -37 135t-88 61q-20 8 -41 12.5t-47 4.5q-29 0 -45 -5l-37 -8q10 23 22.5 54.5t22.5 68.5l39 129l258 62l147 41l-55 -132l-86 -10q-84 -10 -102 -12q-59 -14 -95 -21l-36 -98q80 0 117.5 -16.5t80.5 -59.5 q37 -37 58.5 -98t21.5 -125q0 -158 -113 -385l-254 -446z" />
<glyph unicode="6" horiz-adv-x="530" d="M47 266l8 148q10 111 51 266q25 88 48.5 157.5t60.5 155.5q72 168 162 338l117 39q-47 -72 -99.5 -189.5t-107.5 -271.5q-109 -313 -129 -512l-4 -73q25 53 83 93t117 40q57 0 102.5 -46t45.5 -137q0 -10 -2 -33.5t-10.5 -71.5t-83 -120t-156.5 -72q-23 0 -74 13.5 t-90 92.5t-39 183zM164 135q14 -35 21 -44t30 -17l29 -6q41 0 84 45q14 16 27.5 38.5t19.5 41.5l10 51l4 35q0 29 -8 46t-35 23q-49 8 -106 -51q-53 -59 -76 -162z" />
<glyph unicode="7" horiz-adv-x="419" d="M33 1147l24 117l246 41l158 34q-98 -330 -154 -624q-25 -133 -43 -248t-28 -205l-21 -246l-117 -55q31 352 87.5 636t103.5 453t55 171l-194 -43z" />
<glyph unicode="8" horiz-adv-x="548" d="M51 156q0 98 8.5 169.5t32.5 157.5q39 152 98 279l58 110l-39 109l-27 106l-6 58q0 43 13.5 67.5t43.5 55.5q29 25 66 37t57 12q143 0 144 -119q0 -78 -72 -203l-84 -135l82 -219q29 -90 29 -207q0 -150 -65.5 -312.5t-172.5 -162.5q-74 0 -121 53q-45 57 -45 144z M145 172q10 -109 48 -109q63 0 116 123q23 57 37 122t14 118q0 127 -43 254l-28 72q-63 -129 -105 -289q-18 -80 -28.5 -151.5t-10.5 -139.5zM264 1112q6 -33 7 -43t10.5 -41t11.5 -37q10 -23 14 -30q98 141 99 215q0 20 -11.5 33.5t-32.5 17.5q-43 0 -75 -35 q-12 -14 -17.5 -32.5t-5.5 -47.5z" />
<glyph unicode="9" horiz-adv-x="512" d="M35 -43q127 207 217 469q84 250 115 524q-25 -35 -65 -58.5t-93 -23.5h-25q-55 6 -98 56q-20 25 -30.5 55.5t-10.5 71.5q0 37 13.5 98t70.5 122.5t133 61.5q20 0 75.5 -13t94.5 -96t39 -186l-2 -34v-19q-12 -145 -34.5 -262t-61.5 -231q-70 -215 -209 -492zM150 1057 q0 -68 28 -80l39 -10q39 0 83 48t62 118q-2 20 -7 37.5t-16 38t-38 28.5l-31 6q-41 0 -71 -39q-23 -35 -39 -82z" />
<glyph unicode=":" horiz-adv-x="278" d="M49 0l17 133l127 29l-37 -133zM72 522l30 140l129 16l-49 -129z" />
<glyph unicode=";" horiz-adv-x="280" d="M20 -131q8 18 17.5 46t14.5 50.5t9.5 62.5t4.5 95l116 33q-12 -102 -39 -164q-10 -25 -23.5 -53.5t-25.5 -49.5zM66 524l24 146l135 22l-49 -133z" />
<glyph unicode="&#x3c;" horiz-adv-x="401" d="M47 750l279 192l-23 -98l-127 -103l133 -163l2 -109z" />
<glyph unicode="=" horiz-adv-x="507" d="M84 575l18 66l326 45l-25 -90zM100 694l9 74l331 53l-24 -88z" />
<glyph unicode="&#x3e;" horiz-adv-x="401" d="M80 477l24 127l142 133l-148 103l-16 102l289 -188z" />
<glyph unicode="?" horiz-adv-x="473" d="M25 -51l12 147h121l12 -104zM121 330l133 372q70 199 70 308q0 174 -174 268l96 84q90 -49 139 -125t49 -201q0 -78 -49 -244.5t-188 -504.5z" />
<glyph unicode="@" horiz-adv-x="796" d="M72 936q0 172 89 294t267 122q147 0 241.5 -110.5t94.5 -268.5q0 -209 -87 -348.5t-280 -139.5q-150 0 -237.5 123t-87.5 328zM141 940q0 -164 69 -272.5t183 -108.5q156 0 229.5 117t73.5 297q0 133 -72.5 222t-197.5 89q-135 0 -210 -99.5t-75 -244.5zM279 618l47 326 q36 252 36 281l89 26l41 -280q29 -207 57 -320l-72 -28l-8 102l-18 143l-45 -14l-46 -16l-8 -93l-2 -102zM367 897l36 12l37 11q-16 154 -32 229l-23 -137z" />
<glyph unicode="A" d="M6 -35l90 586l74 487l37 252l127 39q0 -53 28.5 -314t63.5 -518t74 -481l-99 -34l-26 225q-10 111 -14.5 137.5t-14.5 95.5l-78 -20q-53 -12 -108 -53l-47 -377zM174 471q84 47 160 64l-66 622z" />
<glyph unicode="B" horiz-adv-x="589" d="M88 -66q0 80 5 256.5t5 235.5l21 516l16 350l76 4l74 4h53l41 -8q37 -6 70.5 -53t33.5 -106q0 -37 -10 -64q-6 -27 -30.5 -64.5t-50 -57t-62.5 -36.5q88 -12 142 -60t54 -237q0 -76 -8 -149.5t-26 -140.5q-33 -125 -105 -220l-104 -100q-51 -45 -195 -70zM182 39 q96 35 151.5 180.5t72.5 247.5l14 123l2 67q0 82 -19.5 130.5t-50.5 54.5l-51 6q-49 0 -98 -25q0 -78 -4 -143q-14 -227 -15 -250zM207 922q98 27 126.5 71.5t37.5 77.5l8 70q0 51 -23.5 68.5t-58.5 17.5l-70 -6l-12 -150z" />
<glyph unicode="C" horiz-adv-x="438" d="M31 641v72q0 86 2 125t17.5 114.5t70.5 170t117.5 138.5t146.5 70l43 -67q-61 -29 -127 -74q-55 -39 -104 -135q-37 -53 -50.5 -142.5t-13.5 -195.5v-68l2 -63q0 -242 75 -372t208 -175l-31 -84q-166 53 -260 227t-94 389z" />
<glyph unicode="D" horiz-adv-x="657" d="M100 -23v224l4 471l2 585q63 25 121 37.5t121 12.5q147 0 208.5 -160t61.5 -383q0 -76 -8 -150.5t-26 -144.5q-31 -137 -99.5 -236.5t-164 -158t-220.5 -97.5zM201 90q90 35 158.5 112t93.5 167q12 43 19 84t16.5 118.5t9.5 194.5q0 80 -6.5 144.5t-22.5 133.5 q-27 127 -72 158t-96 31q-39 0 -88 -12l-4 -191l-6 -412z" />
<glyph unicode="E" d="M72 -31l2 316q0 66 7 226.5t7 254.5q0 129 10.5 236.5t28.5 234.5l238 53l170 31l-23 -98q-70 -6 -78 -9q-37 -10 -55 -12q-74 -10 -170 -33l-19 -184l-8 -178l133 31l111 18l-12 -100q-106 -12 -154 -27l-78 -20q0 -90 -1 -190.5t-3 -211.5l-8 -219l346 72l-20 -109z " />
<glyph unicode="F" horiz-adv-x="466" d="M72 -16l4 323q0 59 8 221t8 265q0 125 10.5 231t26.5 229q127 29 219 43l180 27l-30 -106q-164 0 -213 -17q-45 -10 -72 -24q-4 -33 -10 -93.5t-6 -95.5l-7 -168l164 31l64 10l-29 -106l-80 -6q-27 0 -57.5 -8.5t-65.5 -22.5q0 -106 -1 -222t-3 -241l-8 -225z" />
<glyph unicode="G" horiz-adv-x="561" d="M35 666q0 182 43 312t115 216q41 57 121.5 94t148.5 37l20 -70q-37 0 -67.5 -11t-69.5 -38q-55 -39 -97 -95t-77 -196.5t-35 -250.5q0 -162 19.5 -293t85 -200t100.5 -85q27 -10 78 -16l-8 137l-4 184v84l8 109l100 37q0 -55 -4 -121q-10 -164 -10 -207q0 -39 2 -100.5 t2 -81.5l8 -123l-53 -4q-68 0 -130.5 19.5t-138 90t-118.5 225.5q-18 76 -28.5 161t-10.5 186z" />
<glyph unicode="H" horiz-adv-x="649" d="M66 -35v221q0 14 8 191.5t8 251.5q0 127 19.5 333.5t29.5 323.5l115 45l-29 -198q-6 -59 -10 -122t-4 -130q119 41 180 51l82 10l8 156q0 43 2 59.5t21 134.5l102 39q-27 -233 -37 -356t-10 -203q0 -90 -6 -260t-6 -250v-133l2 -123l-115 -49l2 266l8 328q0 76 2 105.5 t19 177.5q-45 0 -128 -19.5t-134 -46.5q0 -186 -2.5 -304t-4.5 -222q0 -66 -4 -130.5t-8 -109.5z" />
<glyph unicode="I" horiz-adv-x="311" d="M113 1286l114 49l-12 -184l-14 -285l-6 -340l6 -303q0 -53 7 -109.5t19 -111.5l-104 -27l-4 230l-4 409z" />
<glyph unicode="J" horiz-adv-x="421" d="M0 -53q76 63 106 98q25 33 50 88q12 31 21 87t9 138l9 486v344l-146 -19l-2 103l248 39q78 12 119 26l32 -98l-73 -16l-64 -13l2 -221l6 -268v-78v-51q-4 -29 -4 -39q0 -45 -17 -208t-65.5 -241.5t-191.5 -205.5z" />
<glyph unicode="K" horiz-adv-x="632" d="M88 -39q0 31 4 122t4 122l15 510l8 569l121 57l-37 -366l137 166l127 166l137 16l-100 -125q-29 -37 -79 -93t-136 -151q20 -66 38.5 -121t51.5 -145q59 -174 137 -373.5t129 -287.5l-92 -47l-96 231l-123 321q-61 168 -117 353l-24 -31v-172v-293v-389z" />
<glyph unicode="L" horiz-adv-x="434" d="M96 -10v618l2 449q0 59 2 144t2 110l136 65q-27 -197 -33 -254q-16 -147 -17 -264q0 -88 -6 -264t-6 -264v-125l2 -80l152 31l129 22l-47 -129l-86 -12q-20 -2 -85 -15.5t-145 -31.5z" />
<glyph unicode="M" horiz-adv-x="808" d="M102 -53v1370l97 24q63 -205 126.5 -366.5t116.5 -282.5l72 182q53 139 141 416l95 29q0 -92 -5 -287.5t-6 -259.5q0 -113 -10 -293t-10 -246q0 -115 -3 -156.5t-7 -60.5l-95 -73q0 63 4.5 207.5t4.5 156.5l20 381q0 72 6 180.5t6 145.5l-112 -266l-109 -277l-117 307 l-127 320q0 -59 2.5 -179t2.5 -180l12 -395l6 -336z" />
<glyph unicode="N" horiz-adv-x="688" d="M78 -25q0 164 5 408t5 260l25 479l14 174l82 27q25 -152 86 -377l133 -465l76 -241l16 125l27 360q0 121 2 188q10 338 10 381l86 37q0 -143 -4 -270q-12 -383 -12 -416q0 -156 -6.5 -238.5t-22.5 -230.5q0 -80 -12 -135q-2 -8 -6 -23l-82 -32l-312 1067l-2 -613 q0 -78 -3 -183t-5 -230z" />
<glyph unicode="O" horiz-adv-x="665" d="M61 659q0 207 84 436.5t252 229.5q121 0 168 -203q20 -96 32.5 -209.5t12.5 -234.5q0 -252 -87 -466t-222 -232q-6 -1 -13 -1q-100 0 -163 181q-31 96 -47.5 221t-16.5 278zM180 655q0 -156 3 -216t14 -187q-1 -100 29 -152q27 -48 72 -48q3 0 7 1q86 12 132 212t46 411 v110q0 147 -6 237.5t-22 139.5q-25 94 -82 94q-78 0 -135.5 -213t-57.5 -389z" />
<glyph unicode="P" horiz-adv-x="493" d="M94 -51l2 252l4 434l4 665q47 6 93.5 10.5t85.5 4.5q94 0 143 -19.5t74.5 -77t25.5 -118.5v-23q-18 -133 -100 -182q-39 -20 -97.5 -44t-135.5 -52q0 -84 1 -192.5t3 -239.5l12 -355zM193 885q94 29 145 67q43 37 68 133l2 21q0 33 -12.5 66.5t-36 51t-74.5 17.5 q-39 0 -86 -10l-2 -248v-39v-31q-4 -20 -4 -28z" />
<glyph unicode="Q" horiz-adv-x="696" d="M57 651q0 225 74 440.5t150 227.5l81 14h13q127 0 193.5 -202.5t66.5 -485.5q0 -154 -37 -299.5t-111 -247.5l72 -114l-67 -78l-62 131q-55 -49 -117 -49q-51 0 -96 47t-82 145.5t-57.5 220t-20.5 250.5zM182 659q0 -244 37 -421t111 -177q12 0 27 7.5t40 40.5l-57 122 l41 41l53 -88q31 78 51.5 223.5t20.5 260.5q0 276 -35 442q-33 155 -99 155q-5 0 -10 -1q-82 -14 -131 -204t-49 -401z" />
<glyph unicode="R" horiz-adv-x="546" d="M78 -31v246l4 451q0 90 2 301t2 333q55 6 97 10.5t83 4.5q88 0 143.5 -19.5t77 -72t21.5 -107.5q-8 -90 -64.5 -145.5t-140.5 -91.5q12 -68 23.5 -117t35.5 -129l99 -338l90 -291l-102 -45l-121 455l-107 436l-28 -10l-21 -6v-467l2 -357zM174 926q96 27 144.5 68.5 t64.5 129.5q0 70 -33 93.5t-84 23.5q-39 0 -86 -10l-2 -187v-45v-36q-4 -25 -4 -37z" />
<glyph unicode="S" horiz-adv-x="438" d="M39 25q76 63 132 129.5t85 126.5q14 27 24.5 55.5t22.5 66.5q16 66 16 113q0 72 -36.5 138.5t-96.5 133.5l-102 123q-43 55 -43 168q0 92 59.5 176t192.5 84l90 -63q-131 -12 -184.5 -69.5t-53.5 -129.5q0 -74 58 -151l92 -109q35 -43 82 -129t47 -178q0 -59 -16.5 -130 t-57.5 -144q-18 -35 -40.5 -70t-53.5 -72q-51 -63 -156 -157l-24 34z" />
<glyph unicode="T" horiz-adv-x="417" d="M16 1143l2 102l134 27l305 57l-21 -106l-157 -25l-3 -577l-2 -625l-112 -43q0 59 2 184t2 193l8 430l6 420l-82 -19z" />
<glyph unicode="U" horiz-adv-x="724" d="M84 592q0 51 10 242q4 76 4 141q0 84 13 170q18 102 24 145l113 33q-23 -207 -35 -402.5t-12 -357.5q-1 -260 31 -385q28 -112 84 -112q7 0 14 2q104 29 153 231q29 117 48.5 236.5t19.5 240.5l33 502l98 33q0 -139 -9 -349t-9 -255q0 -115 -27 -234t-72 -235 q-80 -215 -176 -242l-113 -27q-102 0 -147 172t-45 451z" />
<glyph unicode="V" horiz-adv-x="569" d="M35 1268l123 53q0 -252 24 -492q12 -111 26.5 -223t33.5 -215l37 -201l30 172l88 502l74 430l119 41l-266 -1327l-109 -28z" />
<glyph unicode="W" horiz-adv-x="794" d="M61 1292l115 56q0 -141 5 -351.5t5 -236.5q0 -135 4.5 -204t18.5 -212l14 -156l199 523l67 -236l99 -315l26 434q0 98 17 280q25 238 37 379l112 78q-23 -178 -45 -401t-26 -260l-35 -445l-12 -215l-95 -26l-151 516l-88 -234l-90 -262l-86 -43z" />
<glyph unicode="X" horiz-adv-x="532" d="M-16 -29l145 484q41 131 43 137q18 60 41 117l-131 571l90 47l55 -291l37 -157l105 399l108 41l-110 -348q-53 -172 -64 -234l133 -487q41 -137 80 -236l-96 -51l-168 645q-16 -51 -44 -151.5t-46 -169.5l-68 -285z" />
<glyph unicode="Y" horiz-adv-x="524" d="M18 1274l103 78q29 -115 86 -287l84 -244l94 217l111 258l120 31l-114 -227l-105 -234l-71 -164l2 -325l2 -381l-131 -27l37 721l-68 209q-52 156 -150 375z" />
<glyph unicode="Z" horiz-adv-x="524" d="M12 -25q72 309 161 579.5t161 457.5q33 86 53 133q8 18 21 45q-84 0 -169 -18.5t-173 -45.5l16 123l219 27q57 6 128 14.5t124 18.5l-162 -420l-145 -416q-31 -98 -60 -199q-18 -68 -49 -188l225 35l127 18l-67 -125q-63 0 -135 -8z" />
<glyph unicode="[" horiz-adv-x="477" d="M133 -164l6 457q0 78 6 186q14 256 15 334q0 156 19.5 355.5t27.5 293.5q55 10 106.5 15.5t65.5 7.5l125 10l-27 -68l-78 -16l-112 -29q-29 -342 -36 -459.5t-7 -234.5l-11 -606v-184v-58.5t5 -54.5q33 6 69.5 10t57.5 6l104 6l-27 -63l-84 -12l-223 -39l-2 67v76z" />
<glyph unicode="\" horiz-adv-x="376" d="M74 1395l92 80l151 -1563l-73 -55z" />
<glyph unicode="]" horiz-adv-x="479" d="M-31 -266l27 69q18 2 37 2q16 6 22 9l129 32q0 190 3 401.5t6 344.5q0 121 10 313.5t10 263.5l14 242l-102 -12l-86 -4h-29h-10l25 59l69 12l240 52v-58l2 -86l-6 -452q0 -74 -6 -183q-14 -252 -15 -331q0 -154 -19.5 -352.5t-27.5 -291.5l-180 -20z" />
<glyph unicode="^" horiz-adv-x="458" d="M129 1339l150 217l149 -170l-88 -12l-61 72l-54 -72z" />
<glyph unicode="_" horiz-adv-x="757" d="M29 -223l12 86l696 16l-16 -90z" />
<glyph unicode="`" horiz-adv-x="376" d="M66 1438l32 86l232 -76l-29 -53z" />
<glyph unicode="a" d="M-6 -29l76 488l75 493l58 348l112 39l39 -348l68 -575q29 -233 61 -381l-110 -51l-25 284l-24 267l-82 -25q-35 -10 -78 -37l-33 -194q-6 -59 -10 -125t-4 -146zM170 567l84 33l61 21l-59 530l-41 -264z" />
<glyph unicode="b" horiz-adv-x="589" d="M86 -66q0 80 5 256.5t5 235.5l21 516l16 350l76 4l74 4h53l41 -8q41 -6 75.5 -48t34.5 -99q0 -45 -22.5 -89t-63.5 -72t-79 -40q113 -18 157.5 -96t44.5 -234q0 -76 -8 -149.5t-27 -140.5q-33 -125 -104 -220l-104 -100q-51 -45 -195 -70zM180 39q96 35 151.5 180.5 t71.5 241.5l15 141l4 72q0 88 -19.5 143t-52.5 62l-45 6q-51 -1 -104 -21q0 -78 -4 -145q-14 -238 -15 -270zM205 961q117 25 151 79q33 59 33 93q0 51 -30.5 72.5t-63.5 21.5l-70 -6l-16 -199z" />
<glyph unicode="c" horiz-adv-x="440" d="M25 627q0 102 8 188t26 154q35 133 107 221q43 53 104 86q27 12 56.5 24.5t66.5 22.5l33 -72q-70 -14 -112 -48t-93 -99q-43 -57 -71 -186q-23 -129 -23 -293q0 -127 47 -267.5t102 -195.5q27 -27 50.5 -48.5t38.5 -31.5l63 -41l-33 -82q-80 37 -162.5 117t-145 232.5 t-62.5 318.5z" />
<glyph unicode="d" horiz-adv-x="665" d="M98 -23v224l4 471l2 585q63 25 121 37.5t121 12.5q147 0 208.5 -160t61.5 -383q0 -76 -8 -150.5t-26 -144.5q-31 -137 -99.5 -236.5t-164 -158t-220.5 -97.5zM199 90q90 35 158.5 113t93.5 168q10 41 18 81t17.5 118.5t9.5 195.5q0 80 -6.5 144.5t-22.5 133.5 q-27 127 -72 158t-96 31q-39 0 -88 -12l-4 -191l-6 -412z" />
<glyph unicode="e" horiz-adv-x="499" d="M84 -31l2 316q0 66 7 226.5t7 252.5q0 131 10.5 238.5t28.5 230.5l226 55l143 29l-31 -98l-112 -19q-59 -8 -144 -31l-18 -178q0 -45 -2 -70.5t-6 -52.5l131 35l65 15l-8 -101q-90 -12 -127 -26q-41 -10 -61 -23q0 -98 -1 -205.5t-4 -226.5q0 -131 -10 -250l291 64 l-18 -113z" />
<glyph unicode="f" horiz-adv-x="444" d="M94 -45l2 307l15 500q0 143 10 282q4 47 20 218q72 16 183 32l184 25l-31 -107q-39 0 -77 -2t-72 -8q-43 -4 -60.5 -7t-38.5 -9l-12 -117l-4 -151v-21l121 12l84 11l-27 -105l-96 -6q-47 0 -86 -16v-175v-135v-104v-84v-66v-51v-39v-30v-25v-51l-2 -25z" />
<glyph unicode="g" horiz-adv-x="561" d="M41 666q0 182 43 312t115 216q41 57 121.5 94t148.5 37l20 -70q-37 0 -67.5 -11t-69.5 -38q-55 -39 -97 -95t-77 -196.5t-35 -250.5q0 -162 19.5 -294t81 -195.5t94.5 -84.5q27 -10 86 -20l6 204l2 248l47 21l56 18l-15 -215l-4 -184v-107q0 -47 4 -67l-53 -4 q-68 0 -130.5 19.5t-138 90t-118.5 225.5q-18 76 -28.5 161t-10.5 186z" />
<glyph unicode="h" horiz-adv-x="665" d="M84 -39l12 174q0 4 17 279q8 137 8 231q0 113 6 324t6 309l121 45l-29 -162q-12 -92 -12 -231l170 45l117 22l8 117q2 27 8 75t14 103l95 35q-12 -127 -24.5 -261t-12.5 -235l-17 -475l-4 -354l-114 -49l12 244l16 370l11 324q-74 -6 -148 -27q-76 -14 -139 -43l-2 -571 q0 -51 -2 -137t-2 -121z" />
<glyph unicode="i" horiz-adv-x="323" d="M111 1270l114 49q0 -6 -5 -92t-5 -123l-10 -279l-2 -272q0 -78 2 -186.5t2 -139.5q0 -59 2 -86.5t20 -138.5l-104 -27l-6 295l-6 451z" />
<glyph unicode="j" horiz-adv-x="372" d="M-25 -37q72 61 97 90q18 27 47 90q23 55 39 154q8 47 12 98t4 125q0 8 -5 146.5t-5 197.5l-10 436l118 43l4 -366l7 -238v-41q-1 -135 -13 -276q-18 -203 -59 -279.5t-78 -117.5l-119 -111z" />
<glyph unicode="k" horiz-adv-x="595" d="M100 -23l11 209l18 508q0 137 5 350t5 250l117 56l-39 -445l100 166q53 90 119 227l150 31l-115 -188q-59 -100 -162 -250l84 -268q37 -119 56 -174q27 -82 59 -177q63 -178 108 -268l-88 -53l-63 174l-100 305q-18 55 -72 234q-23 70 -43 141l-37 -55l-4 -355l-2 -381z " />
<glyph unicode="l" horiz-adv-x="434" d="M102 -20q0 137 2 340.5t2 269.5l15 477q0 127 6 207q0 15 4 35l135 63q-25 -180 -33 -252q-18 -172 -18 -319q0 -111 -6 -256q-14 -340 -14 -418v-25v-8q55 10 87.5 14.5t59.5 4.5l121 8l-70 -127l-35 4h-55l-98 -2z" />
<glyph unicode="m" horiz-adv-x="786" d="M92 791q0 314 23 509l92 31q41 -197 102.5 -359.5t112.5 -277.5l86 213l139 377l92 35q0 -121 -2 -186q-10 -332 -10 -369l-25 -535l-12 -213l-92 -53q0 66 4 209t4 145l17 355l10 321l-144 -338q-57 -141 -73 -194q-23 66 -45 123q-33 78 -52 123l-133 317q0 -88 6 -254 t7 -246q0 -125 20 -309q2 -18 25 -201l-115 -59l-20 313q0 86 -8.5 260t-8.5 263z" />
<glyph unicode="n" horiz-adv-x="681" d="M63 -25q0 164 5.5 408t5.5 260l24 479l15 174l82 27q14 -80 36.5 -175t59.5 -230l129 -461l63 -205l15 125q16 162 20 226.5t4 139.5q0 123 2 189q10 332 11 362l94 37q-6 -80 -33 -362q-18 -201 -18 -310l-19 -423l-4 -218l-78 -32l-303 1052l-2 -608q0 -78 -3.5 -180.5 t-4.5 -222.5z" />
<glyph unicode="o" horiz-adv-x="665" d="M57 657q0 211 67.5 434.5t225.5 241.5q7 1 14 1q128 0 184 -208q58 -219 58 -450q0 -260 -76.5 -474t-210.5 -233q-6 -1 -13 -1q-104 0 -174 188q-74 200 -75 501zM176 653q0 -240 33 -428q32 -180 107 -181q3 0 6 1q84 12 120.5 203.5t36.5 425.5q0 258 -24.5 424 t-106.5 166q-78 -8 -127 -217q-20 -96 -32.5 -199t-12.5 -195z" />
<glyph unicode="p" horiz-adv-x="481" d="M102 -51l2 252l5 434l4 665q47 6 93 10.5t85 4.5q94 0 141 -21q59 -18 80 -69q10 -23 16.5 -50.5t6.5 -62.5q0 -127 -84 -169t-250 -93q0 -78 2 -228.5t2 -222.5l12 -387zM201 934q94 31 144.5 74t64.5 127v13q0 22 -6 38q-7 20 -35 37q-25 18 -76 18q-39 0 -86 -10 l-2 -184v-43v-35q-4 -25 -4 -35z" />
<glyph unicode="q" horiz-adv-x="694" d="M59 649q0 223 85 436t161 226l96 14q125 0 179.5 -193.5t54.5 -488.5q0 -184 -63.5 -359t-163.5 -249q76 -12 115.5 -34.5t68.5 -45.5l-109 -57l-123 57q-70 29 -145 29l-49 -7l33 60q-74 72 -107 239.5t-33 372.5zM184 657q0 -256 29 -430t86 -174q92 0 150.5 212.5 t58.5 400.5q0 147 -6 258.5t-21 191.5q-23 142 -85 142q-5 0 -11 -1q-82 -14 -143 -208q-29 -98 -43.5 -192.5t-14.5 -199.5z" />
<glyph unicode="r" horiz-adv-x="595" d="M76 -27l6 346l10 469l4 517q102 12 170 12q96 0 148.5 -21.5t76 -74t23.5 -105.5v-22q-12 -90 -83 -153.5t-148 -100.5q68 -221 155 -463q96 -258 164 -397l-110 -37q-70 176 -162 447.5t-135 418.5l-27 -10l2 -441l6 -364zM166 885q84 18 149 73q33 29 53.5 67t20.5 81 q0 41 -8 70.5t-32.5 47t-80.5 17.5l-41 -4q-29 0 -39 -4z" />
<glyph unicode="s" horiz-adv-x="454" d="M41 25q76 63 132 129.5t85 126.5q14 27 24.5 55.5t22.5 66.5q16 66 17 113q0 72 -37 138.5t-97 133.5l-102 123q-43 55 -43 168q0 84 45 160t170 125l90 -51q-106 -31 -153.5 -96.5t-47.5 -139.5t58 -151l92 -109q35 -43 82 -129t47 -178q0 -59 -16.5 -130t-57.5 -144 q-18 -35 -40.5 -70t-53.5 -72q-51 -63 -156 -157l-24 34z" />
<glyph unicode="t" horiz-adv-x="417" d="M29 1243l231 53q125 29 182 29l-22 -102q-27 0 -41 -4l-92 -15l-27 -407l-8 -402q0 -45 1 -102t3 -127q0 -94 10 -170l-112 -43q0 59 4 199.5t4 158.5l16 424q0 109 5 271.5t5 177.5l-155 -37z" />
<glyph unicode="u" horiz-adv-x="686" d="M84 770l6 305q0 55 5 103.5t16 126.5l112 32l-2 -364l-2 -303q-1 -338 19 -471q18 -122 77 -122q5 0 11 1q92 14 137 174q37 129 49 211t12 172q0 78 7.5 238.5t7.5 224.5v202l98 33l2 -172l2 -190q0 -287 -22.5 -480.5t-93 -337t-212.5 -169.5q-11 -2 -22 -2 q-109 0 -156 212q-51 234 -51 576z" />
<glyph unicode="v" horiz-adv-x="573" d="M33 1268l114 53q0 -252 25 -492q12 -111 26.5 -223t32.5 -215l37 -201l37 166l68 353q45 248 92 581l125 49l-268 -1335l-109 -24z" />
<glyph unicode="w" horiz-adv-x="798" d="M72 1284l127 55q0 -133 2 -345t2 -289l8 -386l6 -131q31 90 56.5 164t58.5 158q18 49 39 100q33 82 51 121l67 -246l97 -317l24 450q0 131 23 369q14 141 29 285l112 59q-23 -178 -45 -401t-27 -260l-34 -445l-13 -215l-114 -24l-64 254q-31 129 -67 252l-78 -213 l-99 -283l-83 -16z" />
<glyph unicode="x" horiz-adv-x="530" d="M-8 -29l153 531q25 86 39 129q25 76 39 119l-135 530l92 43q12 -63 27.5 -140t32.5 -134q8 -37 16 -70t18 -64l103 363l108 41l-114 -350l-62 -201q29 -106 69 -251.5t58 -207.5l74 -248l20 -53l-90 -51l-182 668l-96 -375l-60 -248z" />
<glyph unicode="y" horiz-adv-x="514" d="M25 1274l98 102l76 -262l98 -303l70 203q27 76 59 166q14 39 49 125l115 47l-98 -226l-95 -247l-65 -177l-2 -368l-2 -338l-123 -27l37 721l-68 209q-51 156 -149 375z" />
<glyph unicode="z" horiz-adv-x="516" d="M-4 -25q35 150 75 297.5t83 276.5q90 281 157 450q43 109 58 144q8 20 22 47q-43 0 -87 -7t-91 -22q-80 -16 -164 -43l29 127l325 37l136 12q-35 -74 -79 -186.5t-91 -239.5l-166 -493q-68 -227 -80 -289l229 45l123 23l-67 -140l-113 -4q-59 0 -299 -35z" />
<glyph unicode="{" horiz-adv-x="514" d="M72 696q43 31 93 106t56 107l4 45v21l-4 102l-2 68l6 92q6 41 35 106.5t90 124t172 105.5l82 -72q-94 -25 -163.5 -87t-92 -115.5t-29.5 -100.5l-4 -86v-68q0 -27 -2 -58.5t-8 -67.5q-6 -66 -41 -118t-90 -100l68 -92q37 -53 37 -78l-9 -157l-8 -152v-63q0 -37 21 -92 q10 -29 31.5 -62t58.5 -70q68 -70 149 -114l-55 -101q-80 49 -167 142.5t-105 156.5l-21 99l-4 78q0 47 12.5 138t12.5 138l-2 31q0 27 -5 43q0 23 -24 51z" />
<glyph unicode="|" horiz-adv-x="370" d="M129 -150l8 1680l105 24l-29 -1667z" />
<glyph unicode="}" horiz-adv-x="507" d="M-8 1530l131 61q84 -55 135 -123q54 -61 68 -143q12 -61 12 -121q0 -47 -3 -69.5t-13 -77.5l-17 -127q0 -61 31 -137t70 -109q-92 -68 -107 -133l-10 -78q0 -39 22.5 -151.5t22.5 -165.5l-6 -82q-4 -35 -29 -97q-20 -66 -58 -116.5t-147 -128.5l-63 69q84 49 131 106.5 t61 100.5l19 78l4 68q0 59 -19 186l-18 143q0 33 4 55.5t28.5 68.5t65.5 81q-39 51 -62.5 96t-23.5 109l4 49l11 107l6 120q0 66 -9 101q-12 78 -79.5 153.5t-161.5 106.5z" />
<glyph unicode="~" horiz-adv-x="460" d="M111 1393l8 59l45 35q20 16 51 22q31 4 68 -12l45 -16l47 4q27 6 51 28l-41 -90l-31 -12q-12 -6 -32 -6l-27 4l-37 14q-25 12 -45 13l-25 -4q-18 0 -36 -13z" />
<glyph unicode="&#xa1;" horiz-adv-x="337" d="M57 -37l113 1122l78 35l-62 -1087zM145 1307l121 53l-14 -117l-86 -41z" />
<glyph unicode="&#xa2;" horiz-adv-x="464" d="M43 639q0 121 14.5 201t60.5 148.5t124 103.5l6 125l84 22v-129l92 -4l16 -74l-45 4q-63 0 -119 -28q-57 -25 -86 -78q-31 -49 -43 -117q-10 -76 -10 -164q0 -57 19.5 -101t57.5 -90t95 -71q61 -23 117 -22l-12 -82l-88 10l-2 -107h-72l-6 127q-57 25 -98.5 75t-67 106.5 t-37.5 144.5z" />
<glyph unicode="&#xa3;" horiz-adv-x="464" d="M23 -55q43 86 73 211q14 55 25.5 117.5t21.5 146.5l-80 -17l-14 78l107 29l30 342q0 53 11 197q4 57 4 102q0 59 20.5 101t73.5 89l102 -18q-51 -41 -78 -92q-18 -43 -24 -82l-19 -240q0 -76 -6 -142.5t-28 -229.5l110 32l-26 -110l-97 -21q-4 -45 -10 -79.5t-24 -112.5 q-25 -127 -48 -176l129 22l103 8h27l18 -2l-35 -114l-35 4l-41 2h-75q-37 -6 -56 -8q-68 -10 -159 -37z" />
<glyph unicode="&#xa5;" horiz-adv-x="587" d="M23 1274l63 47l39 31l145 -518l58 10l75 209q55 150 97 243l121 31l-107 -219l-104 -248l133 27l-54 -111l-122 -18l-41 -101v-12l180 31l-49 -92l-133 -21l4 -293l6 -274l-131 -27q0 45 4 151.5t4 121.5l22 307l-149 -23l-10 76l164 27l2 16l-25 90l-149 -22l-5 80 l129 24q-25 78 -39 122t-38 105q-25 74 -41.5 117t-48.5 113z" />
<glyph unicode="&#xa7;" horiz-adv-x="446" d="M78 602q0 61 37 131t116 125q-76 88 -111.5 143.5t-35.5 120.5q0 76 30.5 141.5t110.5 141.5l74 -107q-59 -37 -88 -79q-25 -43 -25 -111q0 -49 62 -129l76 -88q29 -33 49 -74t20 -72q0 -61 -37.5 -136t-111.5 -134q12 -18 30 -49q27 -45 48 -86q31 -61 30 -137 q0 -129 -180 -318l-72 105q72 53 112 104t40 123q0 82 -87 206t-87 179zM170 606l6 -24l17 -31q55 37 80.5 93t25.5 97q0 18 -16 43q-59 -39 -86 -84q-6 -12 -16.5 -38.5t-10.5 -55.5z" />
<glyph unicode="&#xa8;" horiz-adv-x="352" d="M98 1354l15 104l102 25l-29 -107zM279 1374l12 107l104 22l-30 -104z" />
<glyph unicode="&#xaa;" horiz-adv-x="444" d="M70 584l63 383l39 270l88 27l59 -375q25 -170 43 -242l-71 -29l-12 101l-19 149q-14 0 -31 -8q-20 -4 -59 -22l-14 -88l-17 -144zM84 543l270 59l-12 -78l-250 -47zM176 897l39 12l37 11l-35 241l-18 -117z" />
<glyph unicode="&#xab;" horiz-adv-x="638" d="M51 590l285 426l24 -105l-196 -319l211 -273v-108zM244 592l268 428l16 -105l-170 -319l166 -277v-112z" />
<glyph unicode="&#xad;" horiz-adv-x="493" d="M66 496l38 90l324 55l-43 -104z" />
<glyph unicode="&#xb0;" horiz-adv-x="325" d="M74 1174q0 57 39 93t98 46q39 6 73.5 -19.5t34.5 -74.5l-2 -19q-12 -63 -43.5 -92t-97.5 -37q-43 -6 -72.5 25.5t-29.5 77.5zM135 1188q-4 -27 8.5 -44.5t40.5 -17.5q63 12 76 74q6 27 -6 45.5t-43 18.5q-61 -8 -76 -76z" />
<glyph unicode="&#xb1;" horiz-adv-x="1124" d="M90 39v139h946v-139h-946zM90 539v139h404v250h139v-250h403v-139h-403v-250h-139v250h-404z" />
<glyph unicode="&#xb4;" horiz-adv-x="311" d="M84 1423l240 97l-13 -95l-207 -63z" />
<glyph unicode="&#xb5;" horiz-adv-x="1179" d="M150 -285l4 119l4 182l-2 207l-4 195v502h188v-607q0 -145 28.5 -194t102.5 -49q115 0 193.5 166.5t78.5 416.5v267h189v-672q0 -92 18.5 -135t59.5 -43t64.5 42t23.5 126v28h43l2 -18v-27q0 -109 -48 -174t-137 -65q-98 0 -153 88t-55 264q-47 -182 -126 -267t-198 -85 q-88 0 -150 53q-55 55 -81 158l-2 -58q0 -135 63 -287.5t68 -189.5q0 -41 -22.5 -63.5t-63.5 -22.5q-47 0 -67.5 36t-20.5 107z" />
<glyph unicode="&#xb8;" horiz-adv-x="514" d="M131 -94l64 149l79 -37l-30 -49q33 0 63.5 -18.5t30.5 -75.5q0 -37 -21.5 -69.5t-64.5 -71.5l-68 -10l58 67q16 20 16 74q0 51 -74 51l-26 -4z" />
<glyph unicode="&#xba;" horiz-adv-x="444" d="M84 952q0 104 38 213t130 109q74 0 103.5 -101.5t29.5 -220.5q0 -125 -44 -229.5t-118 -104.5q-59 0 -102 93q-37 92 -37 241zM100 571l256 50l-12 -78l-240 -39zM160 944q0 -104 13 -190t52 -86q35 6 50.5 83.5t20.5 116.5t5 78v31q0 43 -2 86t-8 82q-8 84 -39 84 q-31 -2 -61.5 -109.5t-30.5 -175.5z" />
<glyph unicode="&#xbb;" horiz-adv-x="632" d="M92 895l17 104l278 -426l-291 -387v113l172 279zM252 190v109l215 274l-201 318l25 104l295 -426z" />
<glyph unicode="&#xbf;" horiz-adv-x="473" d="M63 313q0 39 6.5 84t19.5 102.5t25.5 101.5t35 112.5t44 130t70.5 194.5l84 -34l-117 -353q-57 -188 -57 -295v-24l10 -70q6 -51 53.5 -109.5t145.5 -99.5l-94 -90q-100 43 -153.5 113.5t-69.5 197.5zM274 1343l148 43l-2 -147h-129z" />
<glyph unicode="&#xc0;" d="M6 -35l90 586l74 487l37 252l127 39q0 -53 28.5 -314t63.5 -518t74 -481l-99 -34l-26 225q-10 111 -14.5 137.5t-14.5 95.5l-78 -20q-53 -12 -108 -53l-47 -377zM127 1454l35 86l231 -76l-28 -53zM174 471q84 47 160 64l-66 622z" />
<glyph unicode="&#xc1;" d="M6 -35l90 586l74 487l37 252l127 39q0 -53 28.5 -314t63.5 -518t74 -481l-99 -34l-26 225q-10 111 -14.5 137.5t-14.5 95.5l-78 -20q-53 -12 -108 -53l-47 -377zM172 1442l242 98l-13 -96l-206 -62zM174 471q84 47 160 64l-66 622z" />
<glyph unicode="&#xc2;" d="M6 -35l90 586l74 487l37 252l127 39q0 -53 28.5 -314t63.5 -518t74 -481l-99 -34l-26 225q-10 111 -14.5 137.5t-14.5 95.5l-78 -20q-53 -12 -108 -53l-47 -377zM141 1339l150 217l149 -170l-88 -12l-61 72l-53 -72zM174 471q84 47 160 64l-66 622z" />
<glyph unicode="&#xc3;" d="M6 -35l90 586l74 487l37 252l127 39q0 -53 28.5 -314t63.5 -518t74 -481l-99 -34l-26 225q-10 111 -14.5 137.5t-14.5 95.5l-78 -20q-53 -12 -108 -53l-47 -377zM152 1405l8 59l45 35q20 16 49 23q31 4 68 -13l47 -16l45 4q25 6 53 29l-43 -92l-33 -13l-29 -4l-28 4 l-37 15q-25 12 -45 12l-27 -4l-32 -12zM174 471q84 47 160 64l-66 622z" />
<glyph unicode="&#xc4;" d="M6 -35l90 586l74 487l37 252l127 39q0 -53 28.5 -314t63.5 -518t74 -481l-99 -34l-26 225q-10 111 -14.5 137.5t-14.5 95.5l-78 -20q-53 -12 -108 -53l-47 -377zM162 1382l14 105l100 24l-26 -106zM174 471q84 47 160 64l-66 622zM342 1403l12 106l103 23l-31 -105z" />
<glyph unicode="&#xc5;" d="M6 -35l90 586l74 487l37 252l127 39q0 -53 28.5 -314t63.5 -518t74 -481l-99 -34l-26 225q-10 111 -14.5 137.5t-14.5 95.5l-78 -20q-53 -12 -108 -53l-47 -377zM164 1452q0 55 38 91t93 44q37 6 70.5 -20.5t33.5 -69.5l-2 -18q-12 -59 -39.5 -85t-97.5 -38 q-37 -6 -66.5 25.5t-29.5 70.5zM174 471q84 47 160 64l-66 622zM223 1466q-4 -23 8.5 -39t34.5 -16q61 0 76 68q6 25 -7 43t-40 16q-57 -8 -72 -72z" />
<glyph unicode="&#xc6;" horiz-adv-x="733" d="M-29 -41l109 447l123 536l80 338l118 35v-31l222 53l165 37l-43 -127l-122 -6q-41 0 -88.5 -8t-108.5 -23l-12 -229l-8 -197q29 10 62.5 18.5t72.5 16.5l116 21l-8 -95q-47 -6 -78.5 -12t-64.5 -16l-103 -31v-332q0 -47 -2 -133t-2 -123q113 33 195 49l158 35l-19 -129 l-432 -84l4 535q-18 0 -53 -15q-16 -6 -33.5 -15t-46.5 -30l-86 -456zM195 543l63 32l47 15l25 534q-31 -96 -70 -272z" />
<glyph unicode="&#xc7;" horiz-adv-x="438" d="M31 641v72q0 86 2 125t17.5 114.5t70.5 170t117.5 138.5t146.5 70l43 -67q-61 -29 -127 -74q-55 -39 -104 -135q-37 -53 -50.5 -142.5t-13.5 -195.5v-68l2 -63q0 -242 75 -372t208 -175l-31 -84l-35 14l-30 15l-37 -37q51 0 79.5 -25.5t28.5 -71.5q0 -37 -22 -71 q-16 -31 -56 -70l-63 -10l49 68q14 25 14 71q0 53 -63 53l-27 -4l-26 -6l73 133q-109 78 -176 234q-31 76 -47 155.5t-16 167.5z" />
<glyph unicode="&#xc8;" d="M74 -31l2 316q0 66 7 226.5t7 254.5q0 129 10.5 236.5t28.5 234.5l238 53l170 31l-23 -98q-70 -6 -78 -9q-37 -10 -55 -12q-74 -10 -170 -33l-18 -184l-9 -178l133 31l111 18l-12 -100q-106 -12 -154 -27l-78 -20q0 -90 -1 -190.5t-3 -211.5l-8 -219l346 72l-20 -109z M207 1438l35 86l229 -76l-29 -53z" />
<glyph unicode="&#xc9;" d="M74 -31l2 316q0 66 7 226.5t7 254.5q0 129 10.5 236.5t28.5 234.5l238 53l170 31l-23 -98q-70 -6 -78 -9q-37 -10 -55 -12q-74 -10 -170 -33l-18 -184l-9 -178l133 31l111 18l-12 -100q-106 -12 -154 -27l-78 -20q0 -90 -1 -190.5t-3 -211.5l-8 -219l346 72l-20 -109z M182 1438l240 98l-10 -96l-207 -62z" />
<glyph unicode="&#xca;" d="M74 -31l2 316q0 66 7 226.5t7 254.5q0 129 10.5 236.5t28.5 234.5l238 53l170 31l-23 -98q-70 -6 -78 -9q-37 -10 -55 -12q-74 -10 -170 -33l-18 -184l-9 -178l133 31l111 18l-12 -100q-106 -12 -154 -27l-78 -20q0 -90 -1 -190.5t-3 -211.5l-8 -219l346 72l-20 -109z M186 1331l150 217l145 -170l-84 -12l-61 72l-55 -72z" />
<glyph unicode="&#xcb;" d="M74 -31l2 316q0 66 7 226.5t7 254.5q0 129 10.5 236.5t28.5 234.5l238 53l170 31l-23 -98q-70 -6 -78 -9q-37 -10 -55 -12q-74 -10 -170 -33l-18 -184l-9 -178l133 31l111 18l-12 -100q-106 -12 -154 -27l-78 -20q0 -90 -1 -190.5t-3 -211.5l-8 -219l346 72l-20 -109z M199 1354l14 104l100 25l-28 -107zM379 1374l12 107l103 22l-31 -104z" />
<glyph unicode="&#xcc;" horiz-adv-x="311" d="M31 1462l35 86l229 -75l-29 -54zM113 1282l114 49l-12 -184l-14 -285l-6 -340l6 -303q0 -53 7 -109.5t19 -111.5l-104 -27l-4 230l-4 409z" />
<glyph unicode="&#xcd;" horiz-adv-x="311" d="M68 1434l239 98l-12 -96l-207 -62zM113 1278l114 49l-12 -184l-14 -285l-6 -340l6 -303q0 -53 7 -109.5t19 -111.5l-104 -27l-4 230l-4 409z" />
<glyph unicode="&#xce;" horiz-adv-x="311" d="M23 1343l149 218l145 -170l-84 -13l-61 72l-55 -72zM113 1278l114 49l-12 -184l-14 -285l-6 -340l6 -303q0 -53 7 -109.5t19 -111.5l-104 -27l-4 230l-4 409z" />
<glyph unicode="&#xcf;" horiz-adv-x="311" d="M37 1376l14 103l99 22l-27 -102zM113 1286l114 49l-12 -184l-14 -285l-6 -340l6 -303q0 -53 7 -109.5t19 -111.5l-104 -27l-4 230l-4 409zM215 1397l12 102l99 23l-29 -103z" />
<glyph unicode="&#xd1;" horiz-adv-x="688" d="M78 -25q0 164 5 408t5 260l25 479l14 174l82 27q25 -152 86 -377l133 -465l76 -241l16 125l27 360q0 121 2 188q10 338 10 381l86 37q0 -143 -4 -270q-12 -383 -12 -416q0 -156 -6.5 -238.5t-22.5 -230.5q0 -80 -12 -135q-2 -8 -6 -23l-82 -32l-312 1067l-2 -613 q0 -78 -3 -183t-5 -230zM240 1421l8 60l53 43q10 8 41 14q31 4 68 -12l45 -17l47 4q25 6 53 29l-43 -92q-23 -6 -31 -10l-35 -6l-28 4l-41 18l-37 8l-33 -6q-25 -2 -67 -37z" />
<glyph unicode="&#xd2;" horiz-adv-x="665" d="M55 647q0 197 83 422t251 225q147 0 181 -245.5t34 -382.5q0 -238 -85 -458t-204 -220q-127 0 -193.5 180t-66.5 479zM174 643q0 -246 23.5 -415t95.5 -169q45 0 80 53.5t59 149.5q20 92 32.5 196.5t12.5 205.5v108q0 141 -6 228t-22 137q-25 92 -82 92 q-78 0 -135.5 -207t-57.5 -379zM238 1442l32 86l232 -76l-29 -53z" />
<glyph unicode="&#xd3;" horiz-adv-x="665" d="M59 651q0 197 83 422t251 225q147 0 181 -245.5t34 -382.5q0 -238 -85 -458t-204 -220q-127 0 -193.5 180t-66.5 479zM178 647q0 -246 23.5 -415t95.5 -169q45 0 80 53.5t59 149.5q20 92 32.5 196.5t12.5 205.5v108q0 141 -6 228.5t-22 136.5q-25 92 -82 92 q-78 0 -135.5 -207t-57.5 -379zM227 1442l240 98l-12 -96l-205 -62z" />
<glyph unicode="&#xd4;" horiz-adv-x="665" d="M61 643q0 197 83 422t251 225q147 0 181 -245.5t34 -382.5q0 -238 -85 -458t-203 -220q-127 0 -194 180t-67 479zM180 639q0 -246 23.5 -415t95.5 -169q45 0 80 53.5t59 149.5q20 92 32.5 196.5t12.5 204.5v109q0 141 -6 228t-22 137q-25 92 -82 92q-78 0 -135.5 -207 t-57.5 -379zM217 1319l150 217l149 -170l-90 -12l-59 73l-56 -73z" />
<glyph unicode="&#xd5;" horiz-adv-x="665" d="M57 643q0 197 83 422t251 225q147 0 181 -245.5t34 -382.5q0 -238 -85 -458t-204 -220q-127 0 -193.5 180t-66.5 479zM176 639q0 -246 23.5 -415t95.5 -169q45 0 80 53.5t59 149.5q20 92 32.5 196.5t12.5 204.5v109q0 141 -6 228t-22 137q-25 92 -82 92 q-78 0 -135.5 -207t-57.5 -379zM260 1405l8 59l45 35q20 16 52 23q31 4 67 -13l45 -16l47 4q25 6 54 29l-43 -92l-33 -13l-31 -4l-27 4l-36 15q-23 12 -46 12l-26 -4l-35 -12z" />
<glyph unicode="&#xd6;" horiz-adv-x="665" d="M57 643q0 197 83 422t251 225q147 0 181 -245.5t34 -382.5q0 -238 -85 -458t-204 -220q-127 0 -193.5 180t-66.5 479zM176 639q0 -246 23.5 -415t95.5 -169q45 0 80 53.5t59 149.5q20 92 32.5 196.5t12.5 204.5v109q0 141 -6 228t-22 137q-25 92 -82 92 q-78 0 -135.5 -207t-57.5 -379zM225 1366l15 104l100 25l-29 -106zM406 1386l12 107l102 23l-31 -105z" />
<glyph unicode="&#xd8;" horiz-adv-x="692" d="M59 659q0 102 18.5 205t59.5 217q80 221 238 240h28l9 39l8 37l84 33l-27 -134q98 -61 129 -234t31 -384q0 -260 -87 -466t-249 -224l-2 -54l-6 -34l-68 -33l11 133q-86 45 -131.5 226.5t-45.5 432.5zM174 655q0 -102 4 -194t8 -152q13 -141 58 -213q0 203 40 509 t105 644l-18 2q-76 0 -140 -217q-29 -109 -43 -199t-14 -180zM309 59q102 23 160 222q29 102 43 196t14 199q0 195 -12 321q0 55 -15 106.5t-40 92.5l-68 -461q-10 -82 -38.5 -318.5t-43.5 -357.5z" />
<glyph unicode="&#xd9;" horiz-adv-x="724" d="M84 592q0 51 10 242q4 76 4 141q0 84 13 170q18 102 24 145l113 33q-23 -207 -35 -402.5t-12 -357.5q0 -260 31.5 -385t97.5 -110q104 29 153 231q29 117 48.5 236.5t19.5 240.5l33 502l98 33q0 -139 -9 -349t-9 -255q0 -115 -27 -234t-72 -235q-80 -215 -176 -242 l-113 -27q-102 0 -147 172t-45 451zM270 1462l35 86l232 -75l-29 -54z" />
<glyph unicode="&#xda;" horiz-adv-x="724" d="M84 592q0 51 10 242q4 76 4 141q0 84 13 170q18 102 24 145l113 33q-23 -207 -35 -402.5t-12 -357.5q0 -260 31.5 -385t97.5 -110q104 29 153 231q29 117 48.5 236.5t19.5 240.5l33 502l98 33q0 -139 -9 -349t-9 -255q0 -115 -27 -234t-72 -235q-80 -215 -176 -242 l-113 -27q-102 0 -147 172t-45 451zM313 1434l244 98l-14 -96l-209 -62z" />
<glyph unicode="&#xdb;" horiz-adv-x="724" d="M84 592q0 51 10 242q4 76 4 141q0 84 13 170q18 102 24 145l113 33q-23 -207 -35 -402.5t-12 -357.5q0 -260 31.5 -385t97.5 -110q104 29 153 231q29 117 48.5 236.5t19.5 240.5l33 502l98 33q0 -139 -9 -349t-9 -255q0 -115 -27 -234t-72 -235q-80 -215 -176 -242 l-113 -27q-102 0 -147 172t-45 451zM281 1372l139 201l184 -219l-84 -13l-100 121l-47 -80z" />
<glyph unicode="&#xdc;" horiz-adv-x="724" d="M84 592q0 51 10 242q4 76 4 141q0 84 13 170q18 102 24 145l113 33q-23 -207 -35 -402.5t-12 -357.5q0 -260 31.5 -385t97.5 -110q104 29 153 231q29 117 48.5 236.5t19.5 240.5l33 502l98 33q0 -139 -9 -349t-9 -255q0 -115 -27 -234t-72 -235q-80 -215 -176 -242 l-113 -27q-102 0 -147 172t-45 451zM289 1378l14 105l103 24l-29 -106zM469 1399l12 106l103 23l-31 -105z" />
<glyph unicode="&#xdf;" horiz-adv-x="804" d="M41 25q76 63 132 129.5t85 126.5q14 27 24.5 55.5t22.5 66.5q16 66 17 113q0 72 -37 138.5t-97 133.5l-102 123q-43 55 -43 168q0 86 42 165t169 128l90 -51q-100 -31 -147 -102q-49 -68 -50 -142q0 -74 58 -151l92 -109q35 -43 82 -129t47 -178q0 -59 -16.5 -130 t-57.5 -144q-18 -35 -40.5 -70t-53.5 -72q-51 -63 -156 -157l-24 34zM397 25q76 63 132.5 129.5t84.5 126.5q14 27 24.5 55.5t23.5 66.5q16 66 16 113q0 57 -26.5 120.5t-96.5 139.5l-113 135q-43 55 -43 168q0 84 43 160t172 125l91 -51q-106 -31 -153.5 -96.5 t-47.5 -139.5t57 -151l92 -109q35 -43 82 -129t47 -178q0 -59 -20 -129q-16 -70 -52 -142.5t-96 -144.5q-51 -63 -155 -157l-35 47z" />
<glyph unicode="&#xe0;" d="M-6 -29l76 488l75 493l58 348l112 39l39 -348l68 -575q29 -233 61 -381l-110 -51l-25 284l-24 267l-82 -25q-35 -10 -78 -37l-33 -194q-6 -59 -10 -125t-4 -146zM135 1470l35 86l231 -75l-28 -54zM170 567l84 33l61 21l-59 530l-41 -264z" />
<glyph unicode="&#xe1;" d="M-6 -29l76 488l75 493l58 348l112 39l39 -348l68 -575q29 -233 61 -381l-110 -51l-25 284l-24 267l-82 -25q-35 -10 -78 -37l-33 -194q-6 -59 -10 -125t-4 -146zM141 1454l242 98l-12 -96l-207 -61zM170 567l84 33l61 21l-59 530l-41 -264z" />
<glyph unicode="&#xe2;" d="M-6 -29l76 488l75 493l58 348l112 39l39 -348l68 -575q29 -233 61 -381l-110 -51l-25 284l-24 267l-82 -25q-35 -10 -78 -37l-33 -194q-6 -59 -10 -125t-4 -146zM115 1339l149 217l148 -170l-86 -12l-62 72l-53 -72zM170 567l84 33l61 21l-59 530l-41 -264z" />
<glyph unicode="&#xe3;" d="M-6 -29l76 488l75 493l58 348l112 39l39 -348l68 -575q29 -233 61 -381l-110 -51l-25 284l-24 267l-82 -25q-35 -10 -78 -37l-33 -194q-6 -59 -10 -125t-4 -146zM121 1419l8 60l45 34q20 16 51 23q31 4 68 -12l45 -17l47 4q27 6 51 29l-41 -92q-23 -6 -30 -10l-35 -6 l-31 4l-41 18l-37 8l-33 -6q-20 -2 -67 -37zM170 567l84 33l61 21l-59 530l-41 -264z" />
<glyph unicode="&#xe4;" d="M-6 -29l76 488l75 493l58 348l112 39l39 -348l68 -575q29 -233 61 -381l-110 -51l-25 284l-24 267l-82 -25q-35 -10 -78 -37l-33 -194q-6 -59 -10 -125t-4 -146zM123 1389l14 104l103 25l-29 -107zM170 567l84 33l61 21l-59 530l-41 -264zM303 1409l12 107l105 22 l-31 -106z" />
<glyph unicode="&#xe5;" d="M-6 -29l76 488l75 493l58 348l112 39l39 -348l68 -575q29 -233 61 -381l-110 -51l-25 284l-24 267l-82 -25q-35 -10 -78 -37l-33 -194q-6 -59 -10 -125t-4 -146zM143 1464q0 55 38 91t93 44q41 0 72 -20q33 -27 33 -70l-2 -18q-12 -57 -41 -84t-94 -39q-37 -6 -70 25 q-29 33 -29 71zM170 567l84 33l61 21l-59 530l-41 -264zM203 1479q-4 -27 8 -41.5t37 -14.5q59 0 74 68q6 25 -7.5 43t-40.5 16q-29 -6 -47 -21.5t-24 -49.5z" />
<glyph unicode="&#xe6;" horiz-adv-x="737" d="M-31 -49l105 442l145 613q53 217 74 274l121 35v-12l202 38l132 21l-15 -98l-110 -15q-49 0 -105 -12q-55 -16 -82 -23l-14 -227l-4 -119q59 20 125 33l104 21l-8 -103q-113 -12 -154 -26q-25 -8 -39 -13.5t-32 -15.5l-2 -418l-2 -248l178 23l157 16l-22 -125h-117 q-53 -6 -80 -8q-51 0 -90 -6t-117 -25v359l-4 252l-34 -6q-20 -2 -86 -37l-103 -561zM217 631l57 26l41 17q0 45 2 76q10 150 11 186l12 188q-37 -106 -68 -241z" />
<glyph unicode="&#xe7;" horiz-adv-x="440" d="M25 627q0 102 8 188t26 154q35 133 91.5 203.5t119.5 103.5q27 12 56.5 24.5t66.5 22.5l33 -72q-70 -14 -112 -48t-93 -99q-43 -57 -71 -186q-23 -129 -23 -293q0 -127 47 -267.5t102 -195.5q27 -27 50.5 -48.5t38.5 -31.5l63 -41l-33 -82q-37 16 -47 21.5t-37 25.5 l-18 -37q37 0 75 -26.5t38 -67.5q0 -37 -19.5 -68.5t-60.5 -72.5l-66 -10l51 67q18 23 19 74q0 51 -70 51l-51 -10l55 139l-12 12q-106 100 -166.5 252t-60.5 318z" />
<glyph unicode="&#xe8;" horiz-adv-x="499" d="M84 -31l2 316q0 66 7 226.5t7 252.5q0 131 10.5 238.5t28.5 230.5l226 55l143 29l-31 -98l-112 -19q-59 -8 -144 -31l-18 -178q0 -45 -2 -70.5t-6 -52.5l131 35l65 15l-8 -101q-90 -12 -127 -26q-41 -10 -61 -23q0 -98 -1 -205.5t-4 -226.5q0 -131 -10 -250l291 64 l-18 -113zM178 1446l35 86l229 -76l-26 -53z" />
<glyph unicode="&#xe9;" horiz-adv-x="499" d="M84 -31l2 316q0 66 7 226.5t7 252.5q0 131 10.5 238.5t28.5 230.5l226 55l143 29l-31 -98l-112 -19q-59 -8 -144 -31l-18 -178q0 -45 -2 -70.5t-6 -52.5l131 35l65 15l-8 -101q-90 -12 -127 -26q-41 -10 -61 -23q0 -98 -1 -205.5t-4 -226.5q0 -131 -10 -250l291 64 l-18 -113zM184 1434l240 98l-10 -96l-207 -62z" />
<glyph unicode="&#xea;" horiz-adv-x="499" d="M84 -31l2 316q0 66 7 226.5t7 252.5q0 131 10.5 238.5t28.5 230.5l226 55l143 29l-31 -98l-112 -19q-59 -8 -144 -31l-18 -178q0 -45 -2 -70.5t-6 -52.5l131 35l65 15l-8 -101q-90 -12 -127 -26q-41 -10 -61 -23q0 -98 -1 -205.5t-4 -226.5q0 -131 -10 -250l291 64 l-18 -113zM168 1335l149 217l146 -170l-84 -12l-62 72l-55 -72z" />
<glyph unicode="&#xeb;" horiz-adv-x="499" d="M84 -31l2 316q0 66 7 226.5t7 252.5q0 131 10.5 238.5t28.5 230.5l226 55l143 29l-31 -98l-112 -19q-59 -8 -144 -31l-18 -178q0 -45 -2 -70.5t-6 -52.5l131 35l65 15l-8 -101q-90 -12 -127 -26q-41 -10 -61 -23q0 -98 -1 -205.5t-4 -226.5q0 -131 -10 -250l291 64 l-18 -113zM184 1352l15 104l100 25l-29 -107zM365 1372l12 107l102 22l-30 -104z" />
<glyph unicode="&#xec;" horiz-adv-x="323" d="M43 1442l35 86l229 -76l-28 -53zM121 1274l115 49q0 -6 -5.5 -92t-5.5 -123l-10 -279l-2 -272q0 -78 2 -186.5t2 -139.5q0 -59 2 -86.5t21 -138.5l-105 -26l-6 294l-6 451z" />
<glyph unicode="&#xed;" horiz-adv-x="323" d="M68 1434l239 98l-12 -96l-207 -62zM123 1266l115 49q0 -6 -5.5 -92t-5.5 -123l-10 -279l-2 -272q0 -78 2 -186.5t2 -139.5q0 -59 2 -86.5t21 -138.5l-105 -27l-6 295l-6 451z" />
<glyph unicode="&#xee;" horiz-adv-x="323" d="M25 1323l149 217l145 -170l-83 -12l-62 74l-55 -74zM111 1274l114 29q0 -27 -5 -139.5t-5 -174.5l-8 -440q0 -63 2 -166.5t2 -142.5q0 -72 3 -111t15 -123l-104 -26l-6 294l-6 451z" />
<glyph unicode="&#xef;" horiz-adv-x="323" d="M51 1364l15 102l98 23l-27 -103zM117 1274l114 49q0 -6 -5 -92t-5 -123l-10 -279l-2 -272q0 -78 2 -186.5t2 -139.5q0 -59 2 -86.5t21 -138.5l-105 -26l-6 294l-6 451zM213 1384l12 103l99 22l-29 -102z" />
<glyph unicode="&#xf1;" horiz-adv-x="681" d="M63 -25q0 164 5.5 408t5.5 260l24 479l15 174l82 27q14 -80 36.5 -175t59.5 -230l129 -461l63 -205l15 125q16 162 20 226.5t4 139.5q0 123 2 189q10 332 11 362l94 37q-6 -80 -33 -362q-18 -201 -18 -310l-19 -423l-4 -218l-78 -32l-303 1052l-2 -608q0 -78 -3 -180.5 t-5 -222.5zM223 1417l8 60l54 43q10 8 41 14q31 4 67 -12l45 -17l47 4q25 6 54 29l-43 -92q-23 -6 -31 -10l-35 -6l-29 4l-41 18l-36 8l-33 -6q-25 -2 -68 -37z" />
<glyph unicode="&#xf2;" horiz-adv-x="665" d="M59 657q0 211 67.5 434.5t225.5 241.5q139 12 197.5 -207t58.5 -450q0 -260 -76.5 -474t-209.5 -233q-113 -12 -188 187.5t-75 500.5zM178 653q0 -240 33 -428t113 -180q84 12 120.5 203.5t36.5 425.5q0 258 -24.5 424t-106.5 166q-78 -8 -127 -217q-20 -96 -32.5 -199 t-12.5 -195zM227 1458l33 86l232 -76l-29 -53z" />
<glyph unicode="&#xf3;" horiz-adv-x="665" d="M59 657q0 211 67.5 434.5t225.5 241.5q139 12 197.5 -207t58.5 -450q0 -260 -76.5 -474t-209.5 -233q-113 -12 -188 187.5t-75 500.5zM178 653q0 -240 33 -428t113 -180q84 12 120.5 203.5t36.5 425.5q0 258 -24.5 424t-106.5 166q-78 -8 -127 -217q-20 -96 -32.5 -199 t-12.5 -195zM244 1442l239 98l-12 -96l-207 -62z" />
<glyph unicode="&#xf4;" horiz-adv-x="665" d="M59 657q0 211 67.5 434.5t225.5 241.5q139 12 197.5 -207t58.5 -450q0 -260 -76.5 -474t-209.5 -233q-113 -12 -188 187.5t-75 500.5zM178 653q0 -240 33 -428t113 -180q84 12 120.5 203.5t36.5 425.5q0 258 -24.5 424t-106.5 166q-78 -8 -127 -217q-20 -96 -32.5 -199 t-12.5 -195zM211 1331l149 217l150 -170l-88 -12l-62 72l-55 -72z" />
<glyph unicode="&#xf5;" horiz-adv-x="665" d="M55 651q0 113 16.5 214.5t55.5 215.5q72 217 240 217q125 0 181 -206.5t56 -421.5q0 -246 -73.5 -462t-192.5 -216q-127 0 -205 186.5t-78 472.5zM174 647q0 -233 33 -408.5t106 -175.5q47 0 78 48.5t49 146.5q37 184 37 410q0 248 -24.5 406.5t-106.5 158.5 q-78 0 -127 -207q-20 -94 -32.5 -192.5t-12.5 -186.5zM217 1409l8 59l54 43q10 8 40 15q31 4 68 -13l45 -16l47 4q25 6 53 29l-43 -92l-32 -13l-31 -4l-27 4l-37 15q-25 12 -45 12l-30 -6q-20 -2 -70 -37z" />
<glyph unicode="&#xf6;" horiz-adv-x="665" d="M59 657q0 211 67.5 434.5t225.5 241.5q139 12 197.5 -207t58.5 -450q0 -260 -76.5 -474t-209.5 -233q-113 -12 -188 187.5t-75 500.5zM178 653q0 -240 33 -428t113 -180q84 12 120.5 203.5t36.5 425.5q0 258 -24.5 424t-106.5 166q-78 -8 -127 -217q-20 -96 -32.5 -199 t-12.5 -195zM219 1358l14 104l101 25l-29 -107zM399 1378l13 107l102 22l-31 -104z" />
<glyph unicode="&#xf7;" horiz-adv-x="1124" d="M88 414v139h948v-139h-948zM446 207q0 49 37 83t80 34q49 0 82 -33t33 -84q0 -49 -35 -82q-31 -35 -80 -35t-84 35q-33 39 -33 82zM446 758q0 49 37 82.5t80 33.5q49 0 82 -35.5t33 -80.5q0 -49 -35 -82q-31 -35 -80 -35t-84 33q-33 37 -33 84z" />
<glyph unicode="&#xf8;" horiz-adv-x="698" d="M57 643q0 203 79 429t235 241l39 -2l6 32l6 33l86 29l-27 -133q80 -74 119 -256q18 -92 28.5 -176t10.5 -170q0 -252 -81 -468t-218 -235h-35l-2 -57l-6 -23l-68 -28l13 143q-78 66 -133 240q-23 80 -37.5 186.5t-14.5 214.5zM172 639q0 -141 18.5 -293.5t57.5 -243.5 l37 385q23 205 25.5 226.5t21.5 144.5q29 205 33 232q22 100 30 151l-26 4q-76 0 -140 -221q-29 -109 -43 -201t-14 -184zM313 45l29 -4q86 10 129 211q20 96 32.5 204.5t12.5 211.5q0 141 -13.5 271t-43.5 212l-58 -385l-45 -350z" />
<glyph unicode="&#xf9;" horiz-adv-x="686" d="M82 770l6 305q0 55 5 103.5t16 126.5l112 32l-2 -364l-2 -303q0 -338 19.5 -471t87.5 -121q92 14 137 174q37 129 49 211t12 172q0 78 7.5 238.5t7.5 224.5v202l98 33l2 -172l2 -190q0 -287 -22.5 -480.5t-93 -337t-212.5 -169.5q-127 -23 -178 210.5t-51 575.5z M254 1462l35 86l231 -75l-28 -54z" />
<glyph unicode="&#xfa;" horiz-adv-x="686" d="M86 776l6 301q0 57 5 105.5t16 122.5l112 32l-2 -338v-309q0 -352 18.5 -488t86.5 -124q90 25 139 188q27 94 43 186.5t16 192.5q0 74 7.5 238t7.5 241v176l98 33v-168l2 -176q0 -285 -22.5 -481.5t-92 -343t-145.5 -164.5l-90 -18q-111 0 -160 229q-20 111 -32.5 257 t-12.5 308zM297 1458l242 98l-13 -96l-207 -61z" />
<glyph unicode="&#xfb;" horiz-adv-x="686" d="M86 741l6 310q0 57 5 107t16 126l108 29l-2 -361l-2 -301q0 -330 19.5 -456.5t87.5 -116.5q92 14 137 174q37 129 49 211t12 172q0 78 7.5 238.5t7.5 224.5v202l98 33l2 -172l2 -190q0 -287 -22.5 -480.5t-93 -337t-212.5 -169.5q-121 -18 -173 196.5t-52 560.5z M260 1368l143 201l158 -178l-86 -13l-72 80l-47 -80z" />
<glyph unicode="&#xfc;" horiz-adv-x="686" d="M84 762l6 309q0 55 5 106.5t16 122.5l114 33l-2 -364l-2 -305q0 -336 19.5 -471.5t87.5 -118.5q90 25 139 190q27 94 43 186.5t16 192.5q0 74 7.5 235.5t7.5 241.5v176l98 33v-168l2 -176q0 -281 -22.5 -479.5t-92 -345t-147.5 -164.5l-90 -19q-111 0 -160 226 q-20 111 -32.5 254t-12.5 305zM260 1366l14 104l103 25l-29 -106zM440 1386l13 107l102 23l-31 -105z" />
<glyph unicode="&#xff;" horiz-adv-x="514" d="M23 1274l61 63l37 39l76 -262l98 -303l70 203q27 76 59 166q14 39 49 125l72 26l45 21l-96 -217l-93 -242l-71 -191l-2 -368l-2 -338l-123 -27l37 721l-68 209q-51 156 -149 375zM197 1391l14 104l100 25l-28 -107zM377 1411l12 107l103 22l-31 -106z" />
<glyph unicode="&#x152;" horiz-adv-x="821" d="M39 631q0 225 83 438t251 246q27 4 41 -4l47 -27l389 59l-41 -104l-166 -14q-41 0 -67.5 -6.5t-47.5 -16.5q-8 -45 -13 -88t-5 -102l-6 -232q35 10 78 21.5t77 19.5l93 19l-27 -123q-96 -14 -150 -31l-77 -20v-334q0 -49 -2 -132t-2 -116q92 33 182 51l158 27l-37 -133 q-121 0 -224 -19q-47 -8 -82.5 -13t-95.5 -22v23q-17 -29 -78 -47l-24 -2q-102 0 -178 196.5t-76 485.5zM158 629q0 -238 42 -428.5t119 -175.5q20 6 41 18l29 37q0 135 2 211q10 379 10 424q0 176 9.5 293.5t25.5 210.5q-16 35 -65 28q-80 -18 -146.5 -234t-66.5 -384z" />
<glyph unicode="&#x153;" horiz-adv-x="808" d="M43 635q0 213 88 426t178 229l105 17q33 0 61 -27q147 37 226 49t128 12l-22 -104l-131 -12q-66 -6 -133 -31q-8 -39 -13.5 -78t-5.5 -88l-12 -190q39 12 66.5 20t74.5 19l99 16l-29 -125q-45 0 -80 -2t-70.5 -10t-68.5 -33q0 -172 -2 -275.5t-4 -191.5q0 -117 -11 -172 l338 53l-39 -137q-23 0 -86 -4t-104 -4q-49 0 -80 -2t-129 -15v21l-33 -21q-12 -12 -45 -18l-14 -2h-8q-102 0 -173 194.5t-71 485.5zM162 631q0 -221 35.5 -410.5t115.5 -189.5q39 6 70 49q0 20 14 326q8 174 9 276q0 178 16 336q10 104 29 199q-18 23 -43 26l-23 -4 q-78 -14 -150.5 -230t-72.5 -378z" />
<glyph unicode="&#x178;" horiz-adv-x="524" d="M16 1274l64 47l39 31q29 -115 86 -287l84 -244l59 178l113 314l123 30q-35 -70 -109 -243l-96 -248l-55 -150l2 -325l2 -381l-131 -27l36 721l-67 209q-52 156 -150 375zM186 1370l15 105l100 24l-29 -106zM367 1391l12 106l102 23l-30 -105z" />
<glyph unicode="&#x2000;" horiz-adv-x="799" />
<glyph unicode="&#x2001;" horiz-adv-x="1599" />
<glyph unicode="&#x2002;" horiz-adv-x="799" />
<glyph unicode="&#x2003;" horiz-adv-x="1599" />
<glyph unicode="&#x2004;" horiz-adv-x="533" />
<glyph unicode="&#x2005;" horiz-adv-x="399" />
<glyph unicode="&#x2006;" horiz-adv-x="266" />
<glyph unicode="&#x2007;" horiz-adv-x="266" />
<glyph unicode="&#x2008;" horiz-adv-x="199" />
<glyph unicode="&#x2009;" horiz-adv-x="319" />
<glyph unicode="&#x200a;" horiz-adv-x="88" />
<glyph unicode="&#x2010;" horiz-adv-x="493" d="M66 496l38 90l324 55l-43 -104z" />
<glyph unicode="&#x2011;" horiz-adv-x="493" d="M66 496l38 90l324 55l-43 -104z" />
<glyph unicode="&#x2012;" horiz-adv-x="493" d="M66 496l38 90l324 55l-43 -104z" />
<glyph unicode="&#x2013;" horiz-adv-x="802" d="M29 563l45 76l698 74l-47 -95z" />
<glyph unicode="&#x2014;" horiz-adv-x="1396" d="M41 510l41 84l1259 100l-57 -96z" />
<glyph unicode="&#x2018;" horiz-adv-x="272" d="M90 989q0 92 24.5 148.5t57.5 105.5l74 21q-6 -16 -16.5 -47t-20.5 -76t-10 -115z" />
<glyph unicode="&#x2019;" horiz-adv-x="272" d="M82 1012l33 86q18 49 18 119l-2 36l109 35q0 -106 -29 -163.5t-57 -92.5z" />
<glyph unicode="&#x201a;" horiz-adv-x="272" d="M39 -96q0 25 10 71l8 144l107 37l-31 -148q-4 -20 -7 -35.5t-15 -50.5z" />
<glyph unicode="&#x201c;" horiz-adv-x="374" d="M72 975q0 90 23.5 147.5t56.5 106.5l73 20q-6 -16 -16 -47t-20.5 -75.5t-10.5 -114.5zM215 989q0 90 23.5 147.5t56.5 106.5l74 21q-6 -16 -16.5 -47t-20.5 -76t-10 -115z" />
<glyph unicode="&#x201d;" horiz-adv-x="374" d="M68 987l32 100q17 62 17 142l108 35q0 -55 -6 -93t-22 -69q-29 -55 -58 -94zM219 999l33 86q18 49 18 119l-2 37l109 35q0 -106 -29 -163.5t-57 -92.5z" />
<glyph unicode="&#x201e;" horiz-adv-x="374" d="M39 -96q0 25 10 71l8 144l107 37l-31 -148q-4 -20 -7 -35.5t-15 -50.5zM188 -88l15 88l8 131l106 37q-8 -45 -15 -82t-16.5 -66.5t-13.5 -54.5q-6 -18 -12 -35z" />
<glyph unicode="&#x2022;" horiz-adv-x="432" d="M72 784l290 23l-14 -221l-248 -37z" />
<glyph unicode="&#x2026;" horiz-adv-x="573" d="M-8 -18l16 133l127 28l-37 -133zM199 -18l16 133l127 28l-37 -133zM418 -18l14 133l129 28l-37 -133z" />
<glyph unicode="&#x202f;" horiz-adv-x="319" />
<glyph unicode="&#x2039;" horiz-adv-x="434" d="M25 598l317 399v-116l-201 -281l213 -291l2 -121z" />
<glyph unicode="&#x203a;" horiz-adv-x="421" d="M66 207v112l210 273l-194 319l18 105l295 -426z" />
<glyph unicode="&#x205f;" horiz-adv-x="399" />
<glyph unicode="&#x20ac;" horiz-adv-x="602" d="M37 750h502l18 86h-496zM76 584h420l18 86h-414zM195 641l2 -70q0 -215 94 -389q94 -172 260 -225l31 82q-135 45 -209 175t-74 372l-2 63v68q0 106 13.5 195t49.5 143q49 94 105 135q64 45 127 74l-43 67q-84 -27 -146.5 -70.5t-117.5 -138.5q-57 -98 -72 -170 q-8 -39 -11 -66.5t-5 -48t-2 -51.5v-73v-72z" />
<glyph unicode="&#x25fc;" horiz-adv-x="1320" d="M0 0v1321h1321v-1321h-1321z" />
</font>
</defs>
</svg>
