<?xml version="1.0" encoding="utf-8"?>
<!-- Generator: Adobe Illustrator 16.0.3, SVG Export Plug-In . SVG Version: 6.00 Build 0)  -->
<!DOCTYPE svg PUBLIC "-//W3C//DTD SVG 1.1//EN" "http://www.w3.org/Graphics/SVG/1.1/DTD/svg11.dtd">
<svg version="1.1" id="Calque_1" xmlns="http://www.w3.org/2000/svg" xmlns:xlink="http://www.w3.org/1999/xlink" x="0px" y="0px"
	 width="80px" height="80px" viewBox="0 0 80 80" enable-background="new 0 0 80 80" xml:space="preserve">
<g id="Recharger">
	<path fill="#FFFFFF" stroke="#FFFFFF" stroke-linecap="round" stroke-linejoin="round" stroke-miterlimit="10" d="M40.235,63.152
		c-12.811,0-23.233-10.271-23.233-22.897c0-12.625,10.422-22.897,23.233-22.897c5.496,0,10.537,1.902,14.513,5.062L43.23,32.237
		l30.34,4.414L73.512,6.43l-10.654,9.08c-5.99-5.323-13.92-8.57-22.623-8.57C21.566,6.94,6.43,21.857,6.43,40.255
		c0,18.399,15.136,33.315,33.805,33.315c14.646,0,27.113-9.178,31.81-22.014l-10.809-1.57
		C57.516,57.752,49.514,63.152,40.235,63.152z"/>
</g>
</svg>
